<!-- Derived from Tabler Icons: marquee-2 and pointer. -->
<svg
  xmlns="http://www.w3.org/2000/svg"
  width="24"
  height="24"
  viewBox="0 0 24 24"
  fill="none"
  stroke="currentColor"
  stroke-width="2"
  stroke-linecap="round"
  stroke-linejoin="round"
>
  <path d="M4 6v-1a1 1 0 0 1 1 -1h1m5 0h2m5 0h1a1 1 0 0 1 1 1v1m0 5v2m0 5v1a1 1 0 0 1 -1 1h-1m-5 0h-2m-5 0h-1a1 1 0 0 1 -1 -1v-1m0 -5v-2" />
  <g transform="translate(8.8 8.8) scale(0.55)">
    <path d="M7.904 17.563a1.2 1.2 0 0 0 2.228 .308l2.09 -3.093l4.907 4.907a1.067 1.067 0 0 0 1.509 0l1.047 -1.047a1.067 1.067 0 0 0 0 -1.509l-4.907 -4.907l3.113 -2.09a1.2 1.2 0 0 0 -.309 -2.228l-13.582 -3.904l3.904 13.563" />
  </g>
</svg>
